<?xml version="1.0" encoding="UTF-8"?>
<!DOCTYPE svg PUBLIC "-//W3C//DTD SVG 1.1//EN" "http://www.w3.org/Graphics/SVG/1.1/DTD/svg11.dtd">
<!-- Creator: CorelDRAW X7 -->
<svg xmlns="http://www.w3.org/2000/svg" xml:space="preserve" width="23.3858in" height="16.5354in" version="1.1" style="shape-rendering:geometricPrecision; text-rendering:geometricPrecision; image-rendering:optimizeQuality; fill-rule:evenodd; clip-rule:evenodd" viewBox="0 0 23386 16535" xmlns:xlink="http://www.w3.org/1999/xlink">
 <defs>
  <style type="text/css">
   <![CDATA[
    .fil0 {fill:black}
   ]]>
  </style>
 </defs>
 <g id="Layer_x0020_1">
  <metadata id="CorelCorpID_0Corel-Layer"/>
  <path class="fil0" d="M19116 9591c-572,0 -1036,463 -1036,1035 0,573 464,1037 1036,1037 570,0 1036,-464 1036,-1037 0,-571 -464,-1035 -1036,-1035zm-13603 -1283l2119 1697 5629 0c-114,180 -181,394 -181,623 0,51 4,102 10,151l-7577 0 0 -304 0 -470 0 -1697zm15687 1697l0 -1662 380 0 0 1662 0 774 -1317 0c7,-49 10,-100 10,-151 0,-229 -66,-443 -180,-623l1107 0zm-2085 1075c-250,0 -455,-203 -455,-455 0,-249 203,-454 455,-454 249,0 455,203 455,454 0,252 -204,455 -455,455zm-2417 -1489c-571,0 -1036,463 -1036,1035 0,573 464,1037 1036,1037 572,0 1036,-464 1036,-1037 -1,-571 -464,-1035 -1036,-1035zm0 1489c-249,0 -454,-203 -454,-455 0,-249 204,-454 454,-454 251,0 454,203 454,454 0,252 -204,455 -454,455zm-2451 -1489c-572,0 -1036,463 -1036,1035 0,573 463,1037 1036,1037 570,0 1036,-464 1036,-1037 0,-571 -464,-1035 -1036,-1035zm0 1489c-250,0 -457,-203 -457,-455 0,-249 204,-454 457,-454 249,0 454,203 454,454 0,252 -203,455 -454,455zm-10506 -5149c0,0 617,-559 1735,-1063l0 1063 -1735 0zm-1579 4319c-16,72 -26,148 -26,225 0,64 8,127 21,188l-563 1 0 -414 568 0zm2801 0l433 0 0 413 -427 0c8,-61 15,-124 15,-188 0,-78 -9,-153 -21,-225zm-3331 -2217l0 455 -1 1647 631 0c152,-599 694,-1043 1340,-1043 645,0 1185,443 1338,1043l465 0 0 -3976 -2918 0 -855 1874zm3453 -1572l0 985 -1125 0 -833 700 -1113 0 619 -1685 2452 0zm-1479 3055c-614,-1 -1111,497 -1111,1110 0,614 497,1111 1111,1111 613,0 1110,-496 1110,-1111 -1,-613 -498,-1110 -1110,-1110zm0 1597c-270,0 -488,-218 -488,-488 0,-268 216,-487 488,-487 268,0 487,217 487,487 0,270 -219,488 -487,488zm11798 -334l129 0c-7,-49 -10,-100 -10,-151 0,-229 66,-443 181,-623l-471 0c114,180 181,394 181,623 0,51 -4,102 -10,151zm2443 0l102 0c-6,-49 -9,-100 -9,-151 0,-229 66,-443 180,-623l-444 0c114,180 180,394 180,623 0,51 -3,102 -9,151z"/>
 </g>
</svg>